<svg width="164" height="42" viewBox="0 0 164 42" fill="none" xmlns="http://www.w3.org/2000/svg">
<path d="M48.9055 16.9091V30H46.1378V16.9091H48.9055ZM53.8546 24.3239V30H51.1316V20.1818H53.7267V21.9141H53.8418C54.0591 21.343 54.4235 20.8913 54.9348 20.5589C55.4462 20.2223 56.0662 20.054 56.7949 20.054C57.4767 20.054 58.0712 20.2031 58.5783 20.5014C59.0854 20.7997 59.4796 21.2259 59.7608 21.7798C60.0421 22.3295 60.1827 22.9858 60.1827 23.7486V30H57.4597V24.2344C57.464 23.6335 57.3105 23.1648 56.9995 22.8281C56.6884 22.4872 56.2601 22.3168 55.7147 22.3168C55.3482 22.3168 55.0243 22.3956 54.7431 22.5533C54.4661 22.7109 54.2488 22.9411 54.0911 23.2436C53.9377 23.5419 53.8588 23.902 53.8546 24.3239ZM65.0518 24.3239V30H62.3288V20.1818H64.924V21.9141H65.0391C65.2564 21.343 65.6207 20.8913 66.1321 20.5589C66.6435 20.2223 67.2635 20.054 67.9922 20.054C68.674 20.054 69.2685 20.2031 69.7756 20.5014C70.2827 20.7997 70.6768 21.2259 70.9581 21.7798C71.2393 22.3295 71.38 22.9858 71.38 23.7486V30H68.657V24.2344C68.6612 23.6335 68.5078 23.1648 68.1967 22.8281C67.8857 22.4872 67.4574 22.3168 66.9119 22.3168C66.5455 22.3168 66.2216 22.3956 65.9403 22.5533C65.6634 22.7109 65.446 22.9411 65.2884 23.2436C65.1349 23.5419 65.0561 23.902 65.0518 24.3239ZM77.9622 30.1918C76.9693 30.1918 76.1106 29.9808 75.3862 29.5589C74.666 29.1328 74.1099 28.5405 73.7179 27.782C73.3258 27.0192 73.1298 26.1349 73.1298 25.1293C73.1298 24.1151 73.3258 23.2287 73.7179 22.4702C74.1099 21.7074 74.666 21.1151 75.3862 20.6932C76.1106 20.267 76.9693 20.054 77.9622 20.054C78.9551 20.054 79.8116 20.267 80.5318 20.6932C81.2562 21.1151 81.8145 21.7074 82.2065 22.4702C82.5985 23.2287 82.7946 24.1151 82.7946 25.1293C82.7946 26.1349 82.5985 27.0192 82.2065 27.782C81.8145 28.5405 81.2562 29.1328 80.5318 29.5589C79.8116 29.9808 78.9551 30.1918 77.9622 30.1918ZM77.975 28.0824C78.4267 28.0824 78.8038 27.9545 79.1064 27.6989C79.4089 27.4389 79.6369 27.0852 79.7903 26.6378C79.948 26.1903 80.0268 25.6811 80.0268 25.1101C80.0268 24.5391 79.948 24.0298 79.7903 23.5824C79.6369 23.1349 79.4089 22.7812 79.1064 22.5213C78.8038 22.2614 78.4267 22.1314 77.975 22.1314C77.519 22.1314 77.1355 22.2614 76.8244 22.5213C76.5176 22.7812 76.2853 23.1349 76.1277 23.5824C75.9743 24.0298 75.8975 24.5391 75.8975 25.1101C75.8975 25.6811 75.9743 26.1903 76.1277 26.6378C76.2853 27.0852 76.5176 27.4389 76.8244 27.6989C77.1355 27.9545 77.519 28.0824 77.975 28.0824ZM84.6163 30V16.9091H93.2839V19.1911H87.3841V22.3104H92.7086V24.5923H87.3841V30H84.6163ZM95.0945 30V20.1818H97.8175V30H95.0945ZM96.4624 18.9162C96.0575 18.9162 95.7102 18.782 95.4205 18.5135C95.1349 18.2408 94.9922 17.9148 94.9922 17.5355C94.9922 17.1605 95.1349 16.8388 95.4205 16.5703C95.7102 16.2976 96.0575 16.1612 96.4624 16.1612C96.8672 16.1612 97.2124 16.2976 97.4979 16.5703C97.7876 16.8388 97.9325 17.1605 97.9325 17.5355C97.9325 17.9148 97.7876 18.2408 97.4979 18.5135C97.2124 18.782 96.8672 18.9162 96.4624 18.9162ZM102.722 24.3239V30H99.9988V20.1818H102.594V21.9141H102.709C102.926 21.343 103.291 20.8913 103.802 20.5589C104.313 20.2223 104.933 20.054 105.662 20.054C106.344 20.054 106.938 20.2031 107.445 20.5014C107.953 20.7997 108.347 21.2259 108.628 21.7798C108.909 22.3295 109.05 22.9858 109.05 23.7486V30H106.327V24.2344C106.331 23.6335 106.178 23.1648 105.867 22.8281C105.556 22.4872 105.127 22.3168 104.582 22.3168C104.215 22.3168 103.892 22.3956 103.61 22.5533C103.333 22.7109 103.116 22.9411 102.958 23.2436C102.805 23.5419 102.726 23.902 102.722 24.3239ZM113.996 30.1854C113.369 30.1854 112.811 30.0767 112.321 29.8594C111.831 29.6378 111.443 29.3118 111.158 28.8814C110.876 28.4467 110.736 27.9055 110.736 27.2578C110.736 26.7124 110.836 26.2543 111.036 25.8835C111.237 25.5128 111.509 25.2145 111.854 24.9886C112.2 24.7628 112.592 24.5923 113.031 24.4773C113.474 24.3622 113.938 24.2812 114.424 24.2344C114.995 24.1747 115.455 24.1193 115.805 24.0682C116.154 24.0128 116.408 23.9318 116.565 23.8253C116.723 23.7187 116.802 23.5611 116.802 23.3523V23.3139C116.802 22.9091 116.674 22.5959 116.418 22.3743C116.167 22.1527 115.809 22.0419 115.344 22.0419C114.854 22.0419 114.464 22.1506 114.175 22.3679C113.885 22.581 113.693 22.8494 113.599 23.1733L111.081 22.9688C111.209 22.3722 111.46 21.8565 111.835 21.4219C112.21 20.983 112.694 20.6463 113.286 20.4119C113.883 20.1733 114.573 20.054 115.357 20.054C115.903 20.054 116.425 20.1179 116.923 20.2457C117.426 20.3736 117.871 20.5717 118.259 20.8402C118.651 21.1087 118.96 21.4538 119.186 21.8757C119.412 22.2933 119.525 22.794 119.525 23.3778V30H116.942V28.6385H116.866C116.708 28.9453 116.497 29.2159 116.233 29.4503C115.969 29.6804 115.651 29.8615 115.281 29.9936C114.91 30.1214 114.482 30.1854 113.996 30.1854ZM114.776 28.3061C115.176 28.3061 115.53 28.2273 115.837 28.0696C116.143 27.9077 116.384 27.6903 116.559 27.4176C116.734 27.1449 116.821 26.8359 116.821 26.4908V25.4489C116.736 25.5043 116.619 25.5554 116.469 25.6023C116.325 25.6449 116.161 25.6854 115.977 25.7237C115.794 25.7578 115.611 25.7898 115.428 25.8196C115.244 25.8452 115.078 25.8686 114.929 25.8899C114.609 25.9368 114.33 26.0114 114.092 26.1136C113.853 26.2159 113.668 26.3544 113.536 26.5291C113.403 26.6996 113.337 26.9126 113.337 27.1683C113.337 27.5391 113.472 27.8224 113.74 28.0185C114.013 28.2102 114.358 28.3061 114.776 28.3061ZM124.36 24.3239V30H121.637V20.1818H124.233V21.9141H124.348C124.565 21.343 124.929 20.8913 125.441 20.5589C125.952 20.2223 126.572 20.054 127.301 20.054C127.983 20.054 128.577 20.2031 129.084 20.5014C129.591 20.7997 129.985 21.2259 130.267 21.7798C130.548 22.3295 130.689 22.9858 130.689 23.7486V30H127.966V24.2344C127.97 23.6335 127.816 23.1648 127.505 22.8281C127.194 22.4872 126.766 22.3168 126.221 22.3168C125.854 22.3168 125.53 22.3956 125.249 22.5533C124.972 22.7109 124.755 22.9411 124.597 23.2436C124.444 23.5419 124.365 23.902 124.36 24.3239ZM137.271 30.1918C136.265 30.1918 135.4 29.9787 134.676 29.5526C133.955 29.1222 133.401 28.5256 133.014 27.7628C132.63 27 132.438 26.1222 132.438 25.1293C132.438 24.1236 132.632 23.2415 133.02 22.483C133.412 21.7202 133.968 21.1257 134.688 20.6996C135.409 20.2692 136.265 20.054 137.258 20.054C138.115 20.054 138.865 20.2095 139.508 20.5206C140.151 20.8317 140.661 21.2685 141.036 21.831C141.411 22.3935 141.617 23.054 141.656 23.8125H139.086C139.014 23.3224 138.822 22.9283 138.511 22.63C138.204 22.3274 137.801 22.1761 137.303 22.1761C136.881 22.1761 136.512 22.2912 136.197 22.5213C135.886 22.7472 135.643 23.0774 135.468 23.5121C135.294 23.9467 135.206 24.473 135.206 25.0909C135.206 25.7173 135.291 26.25 135.462 26.6889C135.637 27.1278 135.882 27.4624 136.197 27.6925C136.512 27.9226 136.881 28.0376 137.303 28.0376C137.614 28.0376 137.893 27.9737 138.14 27.8459C138.392 27.718 138.598 27.5327 138.76 27.2898C138.926 27.0426 139.035 26.7464 139.086 26.4013H141.656C141.613 27.1513 141.409 27.8118 141.042 28.3828C140.68 28.9496 140.179 29.3928 139.54 29.7124C138.901 30.032 138.144 30.1918 137.271 30.1918ZM147.874 30.1918C146.864 30.1918 145.994 29.9872 145.266 29.5781C144.541 29.1648 143.983 28.581 143.591 27.8267C143.199 27.0682 143.003 26.1712 143.003 25.1357C143.003 24.1257 143.199 23.2393 143.591 22.4766C143.983 21.7138 144.535 21.1193 145.246 20.6932C145.962 20.267 146.802 20.054 147.765 20.054C148.413 20.054 149.016 20.1584 149.574 20.3672C150.136 20.5717 150.626 20.8807 151.044 21.294C151.466 21.7074 151.794 22.2273 152.028 22.8537C152.263 23.4759 152.38 24.2045 152.38 25.0398V25.7876H144.089V24.1001H149.817C149.817 23.7081 149.732 23.3608 149.561 23.0582C149.391 22.7557 149.154 22.5192 148.852 22.3487C148.553 22.174 148.206 22.0866 147.81 22.0866C147.396 22.0866 147.03 22.1825 146.71 22.3743C146.395 22.5618 146.148 22.8153 145.969 23.1349C145.79 23.4503 145.698 23.8018 145.694 24.1896V25.794C145.694 26.2798 145.783 26.6996 145.962 27.0533C146.146 27.407 146.403 27.6797 146.736 27.8714C147.068 28.0632 147.462 28.1591 147.918 28.1591C148.221 28.1591 148.498 28.1165 148.749 28.0312C149.001 27.946 149.216 27.8182 149.395 27.6477C149.574 27.4773 149.71 27.2685 149.804 27.0213L152.322 27.1875C152.195 27.7926 151.933 28.321 151.536 28.7727C151.144 29.2202 150.637 29.5696 150.015 29.821C149.397 30.0682 148.683 30.1918 147.874 30.1918ZM162.326 22.9815L159.833 23.1349C159.79 22.9219 159.699 22.7301 159.558 22.5597C159.418 22.3849 159.232 22.2464 159.002 22.1442C158.776 22.0376 158.506 21.9844 158.19 21.9844C157.768 21.9844 157.413 22.0739 157.123 22.2528C156.833 22.4276 156.688 22.6619 156.688 22.956C156.688 23.1903 156.782 23.3885 156.969 23.5504C157.157 23.7124 157.479 23.8423 157.935 23.9403L159.712 24.2983C160.666 24.4943 161.378 24.8097 161.847 25.2443C162.315 25.679 162.55 26.25 162.55 26.9574C162.55 27.6009 162.36 28.1655 161.981 28.6513C161.606 29.1371 161.09 29.5163 160.434 29.7891C159.782 30.0575 159.03 30.1918 158.178 30.1918C156.878 30.1918 155.842 29.9212 155.071 29.38C154.304 28.8345 153.854 28.093 153.722 27.1555L156.401 27.0149C156.482 27.4112 156.678 27.7138 156.989 27.9226C157.3 28.1271 157.698 28.2294 158.184 28.2294C158.661 28.2294 159.045 28.1378 159.335 27.9545C159.629 27.767 159.778 27.5263 159.782 27.2322C159.778 26.9851 159.673 26.7827 159.469 26.625C159.264 26.4631 158.949 26.3395 158.523 26.2543L156.822 25.9155C155.864 25.7237 155.15 25.3913 154.681 24.9183C154.217 24.4453 153.984 23.8423 153.984 23.1094C153.984 22.4787 154.155 21.9354 154.496 21.4794C154.841 21.0234 155.325 20.6719 155.947 20.4247C156.573 20.1776 157.306 20.054 158.146 20.054C159.386 20.054 160.362 20.3161 161.073 20.8402C161.789 21.3643 162.207 22.0781 162.326 22.9815Z" fill="#8F95FD"/>
<path fill-rule="evenodd" clip-rule="evenodd" d="M19.8351 6.65271C20.5405 6.18246 21.4595 6.18246 22.1649 6.65271L34.7649 15.0527C35.2884 15.4017 35.6278 15.967 35.6897 16.5931C35.7517 17.2192 35.5297 17.8401 35.0849 18.2849L33.6 19.7699V29.4009C34.8275 29.8668 35.7 31.054 35.7 32.445C35.7 34.2426 34.2426 35.7 32.445 35.7H9.55499C7.75731 35.7 6.29999 34.2426 6.29999 32.445C6.29999 31.054 7.17246 29.8668 8.39999 29.4009V19.7699L6.91508 18.2849C6.4702 17.8401 6.24823 17.2192 6.31022 16.5931C6.37221 15.967 6.71166 15.4017 7.23512 15.0527L19.8351 6.65271ZM25.2 18.9C26.3598 18.9 27.3 19.8402 27.3 21V27.3C27.3 28.4598 26.3598 29.4 25.2 29.4C24.0402 29.4 23.1 28.4598 23.1 27.3V21C23.1 19.8402 24.0402 18.9 25.2 18.9ZM18.9 21C18.9 19.8402 17.9598 18.9 16.8 18.9C15.6402 18.9 14.7 19.8402 14.7 21V27.3C14.7 28.4598 15.6402 29.4 16.8 29.4C17.9598 29.4 18.9 28.4598 18.9 27.3V21Z" fill="#8F95FD"/>
</svg>
